<!-- <svg xmlns="http://www.w3.org/2000/svg" fill="none" viewBox="0 0 24 24" height="24" 
width="24"><path fill="#ffffff" d="M5 12.5v-11a1 1 0 0 1 1 -1h10.59a0.857 0.857 0 0 1 0.41 0.1l4.9 4.9a0.856 0.856 0 0 1 0.1 0.41V20.5a1 1 0 0 1 -1 1h-5" stroke-width="1"></path><path stroke="#191919" stroke-linecap="round" stroke-linejoin="round" d="M8 5.5h6.5" stroke-width="1"></path><path stroke="#191919" stroke-linecap="round" stroke-linejoin="round" d="M8 5.5h6.5" stroke-width="1"></path><path stroke="#191919" stroke-linecap="round" stroke-linejoin="round" d="M8 8.5h7.5" stroke-width="1"></path><path stroke="#191919" stroke-linecap="round" stroke-linejoin="round" d="M8 11.5h10.5" stroke-width="1"></path><path fill="#ffef5e" d="M15 14.5H8a0.999 0.999 0 0 1 -0.8 -0.4l-0.9 -1.2a1 1 0 0 0 -0.8 -0.4H3a1 1 0 0 0 -1 1v9a1 1 0 0 0 1 1h12a1 1 0 0 0 1 -1v-7a1 1 0 0 0 -1 -1Z" stroke-width="1"></path><path fill="#fff9bf" d="M8 14.5a0.999 0.999 0 0 1 -0.8 -0.4l-0.9 -1.2a1 1 0 0 0 -0.8 -0.4H3a1 1 0 0 0 -1 1v9a1 1 0 0 0 1 1h0.93l9 -9H8Z" stroke-width="1"></path><path stroke="#191919" stroke-linecap="round" stroke-linejoin="round" d="M15 14.5H8a0.999 0.999 0 0 1 -0.8 -0.4l-0.9 -1.2a1 1 0 0 0 -0.8 -0.4H3a1 1 0 0 0 -1 1v9a1 1 0 0 0 1 1h12a1 1 0 0 0 1 -1v-7a1 1 0 0 0 -1 -1Z" stroke-width="1"></path><path stroke="#191919" stroke-linecap="round" stroke-linejoin="round" d="M5 12.5v-11a1 1 0 0 1 1 -1h10.59a0.857 0.857 0 0 1 0.41 0.1l4.9 4.9a0.856 0.856 0 0 1 0.1 0.41V20.5a1 1 0 0 1 -1 1h-5" stroke-width="1"></path><path fill="#e3e3e3" d="M21.9 5.5H18a1 1 0 0 1 -1 -1V0.6c0.11 0.042 0.208 0.107 0.29 0.19l4.42 4.42c0.084 0.082 0.148 0.18 0.19 0.29Z" stroke-width="1"></path><path stroke="#191919" stroke-linecap="round" stroke-linejoin="round" d="M21.9 5.5H18a1 1 0 0 1 -1 -1V0.6c0.11 0.042 0.208 0.107 0.29 0.19l4.42 4.42c0.084 0.082 0.148 0.18 0.19 0.29v0Z" stroke-width="1"></path></svg>
 -->

<!-- 
<svg xmlns="http://www.w3.org/2000/svg" fill="none" viewBox="0 0 24 24" height="24" width="24"><path fill="#ffffff" d="M18.923076923076923 0.9230769230769231h-12a0.9230769230769231 0.9230769230769231 0 0 0 -0.9230769230769231 0.9230769230769231v10.748307692307693a0.9230769230769231 0.9230769230769231 0 0 0 0.9230769230769231 0.9230769230769231h12a0.9230769230769231 0.9230769230769231 0 0 0 0.9230769230769231 -0.9230769230769231V1.8461538461538463a0.9230769230769231 0.9230769230769231 0 0 0 -0.9230769230769231 -0.9230769230769231Z" stroke-width="1"></path><path fill="#ffef5e" d="M22.597846153846156 11.261538461538462A0.9230769230769231 0.9230769230769231 0 0 0 21.692307692307693 10.153846153846155H10.338461538461539a0.9230769230769231 0.9230769230769231 0 0 1 -0.9055384615384616 -0.7384615384615385l-0.25661538461538463 -1.2923076923076924A0.9230769230769231 0.9230769230769231 0 0 0 8.270769230769233 7.384615384615385H2.307692307692308a0.9230769230769231 0.9230769230769231 0 0 0 -0.9055384615384616 1.1076923076923078l2.4000000000000004 12a0.9230769230769231 0.9230769230769231 0 0 0 0.9055384615384616 0.7384615384615385h15.138461538461538a0.9230769230769231 0.9230769230769231 0 0 0 0.9046153846153846 -0.7384615384615385l1.847076923076923 -9.230769230769232Z" stroke-width="1"></path><path stroke="#191919" stroke-linecap="round" stroke-linejoin="round" d="M6 5.538461538461538V1.8461538461538463a0.9230769230769231 0.9230769230769231 0 0 1 0.9230769230769231 -0.9230769230769231h12a0.9230769230769231 0.9230769230769231 0 0 1 0.9230769230769231 0.9230769230769231v6.461538461538462" stroke-width="1"></path><path stroke="#191919" stroke-linecap="round" stroke-linejoin="round" d="M8.76923076923077 3.6923076923076925H16.615384615384617" stroke-width="1"></path><path stroke="#191919" stroke-linecap="round" stroke-linejoin="round" d="M12.461538461538462 6.461538461538462H16.615384615384617" stroke-width="1"></path><path fill="#fff9bf" d="M10.338461538461539 10.153846153846155a0.9230769230769231 0.9230769230769231 0 0 1 -0.9055384615384616 -0.7384615384615385l-0.25661538461538463 -1.2923076923076924A0.9230769230769231 0.9230769230769231 0 0 0 8.270769230769233 7.384615384615385H2.307692307692308a0.9230769230769231 0.9230769230769231 0 0 0 -0.9046153846153846 1.1076923076923078l2.4000000000000004 12a0.9230769230769231 0.9230769230769231 0 0 0 0.9046153846153846 0.7384615384615385h1.2184615384615385l11.076923076923077 -11.076923076923077H10.338461538461539Z" stroke-width="1"></path><path stroke="#191919" stroke-linecap="round" stroke-linejoin="round" d="M22.597846153846156 11.261538461538462A0.9230769230769231 0.9230769230769231 0 0 0 21.692307692307693 10.153846153846155H10.338461538461539a0.9230769230769231 0.9230769230769231 0 0 1 -0.9055384615384616 -0.7384615384615385l-0.25661538461538463 -1.2923076923076924A0.9230769230769231 0.9230769230769231 0 0 0 8.270769230769233 7.384615384615385H2.307692307692308a0.9230769230769231 0.9230769230769231 0 0 0 -0.9055384615384616 1.1076923076923078l2.4000000000000004 12a0.9230769230769231 0.9230769230769231 0 0 0 0.9055384615384616 0.7384615384615385h15.138461538461538a0.9230769230769231 0.9230769230769231 0 0 0 0.9046153846153846 -0.7384615384615385l1.847076923076923 -9.230769230769232Z" stroke-width="1">
</path></svg> -->


<svg xmlns="http://www.w3.org/2000/svg" fill="none" viewBox="0 0 24 24" height="24" width="24"><path fill="#ffef5e" d="M19.5 17.5a1 1 0 0 0 1 -1v-12a1 1 0 0 0 -1 -1H9.618a1 1 0 0 1 -0.894 -0.553l-0.948 -1.894A1 1 0 0 0 6.882 0.5H1.5a1 1 0 0 0 -1 1v15a1 1 0 0 0 1 1h18Z" stroke-width="1"></path><path fill="#fff9bf" d="M9.618 3.5a1 1 0 0 1 -0.894 -0.553l-0.948 -1.894A1 1 0 0 0 6.882 0.5H1.5a1 1 0 0 0 -1 1v15a1 1 0 0 0 1 1h0.7l14 -14H9.618Z" stroke-width="1"></path><path stroke="#191919" stroke-linecap="round" stroke-linejoin="round" d="M20.5 11.5v-7a1 1 0 0 0 -1 -1H9.618a1 1 0 0 1 -0.894 -0.553l-0.948 -1.894A1 1 0 0 0 6.882 0.5H1.5a1 1 0 0 0 -1 1v15a1 1 0 0 0 1 1h6" stroke-width="1"></path><path fill="#ffffff" stroke="#191919" stroke-linecap="round" stroke-linejoin="round" d="M21.5 16.31v6.19a1 1 0 0 1 -1 1h-7a1 1 0 0 1 -1 -1v-6.19l3.85 -3.26a1 1 0 0 1 1.3 0l3.85 3.26Z" stroke-width="1"></path><path stroke="#191919" stroke-linecap="round" stroke-linejoin="round" d="m23.5 18 -2 -1.69" stroke-width="1"></path><path stroke="#191919" stroke-linecap="round" stroke-linejoin="round" d="m12.5 16.31 -2 1.69" stroke-width="1"></path><path fill="#c77f67" stroke="#191919" stroke-linecap="round" stroke-linejoin="round" d="M18.5 23.5h-3v-3a1.5 1.5 0 1 1 3 0v3Z" stroke-width="1">
</path></svg>